<?xml version="1.0" standalone="no"?><svg xmlns="http://www.w3.org/2000/svg" viewBox="0 0 1440 320"><path fill="#407BFF" fill-opacity="1" d="M0,96L34.3,90.7C68.6,85,137,75,206,64C274.3,53,343,43,411,48C480,53,549,75,617,101.3C685.7,128,754,160,823,186.7C891.4,213,960,235,1029,218.7C1097.1,203,1166,149,1234,122.7C1302.9,96,1371,96,1406,96L1440,96L1440,320L1405.7,320C1371.4,320,1303,320,1234,320C1165.7,320,1097,320,1029,320C960,320,891,320,823,320C754.3,320,686,320,617,320C548.6,320,480,320,411,320C342.9,320,274,320,206,320C137.1,320,69,320,34,320L0,320Z"></path></svg>