<?xml version="1.0" standalone="no"?><svg xmlns="http://www.w3.org/2000/svg" viewBox="0 0 1440 320"><path fill="#407BFF" fill-opacity="1" d="M0,96L34.3,90.7C68.6,85,137,75,206,64C274.3,53,343,43,411,48C480,53,549,75,617,101.3C685.7,128,754,160,823,186.7C891.4,213,960,235,1029,218.7C1097.1,203,1166,149,1234,122.7C1302.9,96,1371,96,1406,96L1440,96L1440,0L1405.7,0C1371.4,0,1303,0,1234,0C1165.7,0,1097,0,1029,0C960,0,891,0,823,0C754.3,0,686,0,617,0C548.6,0,480,0,411,0C342.9,0,274,0,206,0C137.1,0,69,0,34,0L0,0Z"></path></svg>